<svg xmlns="http://www.w3.org/2000/svg" viewBox="0 0 44.43 51.31"><defs><style>.cls-1{fill:#318fff;}.cls-2{fill:#398aff;}.cls-3{fill:#1364e5;}.cls-4{fill:#6ca8ff;}</style></defs><g id="Layer_2" data-name="Layer 2"><g id="Layer_1-2" data-name="Layer 1"><polygon class="cls-1" points="22.22 0 4.63 16.5 0.76 38.06 22.22 50.28 42.19 37.24 34.63 13.54 22.22 0"/><polygon class="cls-2" points="22.22 0 0 12.83 0 38.48 22.22 26.25 22.22 0"/><polygon class="cls-3" points="22.22 0 22.22 26.25 44.43 38.48 44.43 12.83 22.22 0"/><polygon class="cls-4" points="22.22 26.25 0 38.48 11.87 45.33 7.82 37.8 22.22 26.25"/><polygon class="cls-1" points="22.22 51.31 44.43 38.48 22.22 26.25 22.22 51.31"/><polygon class="cls-4" points="6.93 37.39 11.87 45.33 22.22 51.31 22.22 26.25 6.93 37.39"/></g></g></svg>